<?xml version="1.0" encoding="UTF-8"?>
<svg id="Calque_1" data-name="Calque 1" xmlns="http://www.w3.org/2000/svg" viewBox="0 0 14.02 11.72">
  <defs>
    <style>
      .cls-1 {
        fill: none;
      }

      .cls-1, .cls-2, .cls-3 {
        stroke-width: 0px;
      }

      .cls-2 {
        fill: #f9ba15;
      }

      .cls-3 {
        fill: #abdecf;
      }
    </style>
  </defs>
  <g>
    <path class="cls-2" d="m9.07.79l-1.14,1.44c.16.08.31.16.46.25l.68-1.7Z"/>
    <path class="cls-2" d="m11.21,2.93l-1.72.69c.1.15.18.31.25.47l1.47-1.16Z"/>
    <path class="cls-2" d="m10.1,6.14l1.9-.28-1.89-.27c0,.06.02.12.02.19,0,.12-.03.24-.04.36Z"/>
    <path class="cls-2" d="m11.21,8.8l-1.53-1.21c-.09.17-.17.33-.28.48l1.81.72Z"/>
    <path class="cls-2" d="m6.4,1.81l-.26-1.81-.26,1.81c.09,0,.17-.03.26-.03s.17.02.26.03Z"/>
    <path class="cls-2" d="m3.2,10.94l1.23-1.56c-.17-.08-.34-.17-.5-.27l-.73,1.83Z"/>
    <path class="cls-2" d="m9.07,10.94l-.73-1.83c-.16.1-.33.19-.5.27l1.23,1.56Z"/>
    <path class="cls-2" d="m1.06,2.93l1.47,1.16c.08-.16.16-.32.25-.47l-1.72-.69Z"/>
    <path class="cls-2" d="m3.21.79l.68,1.7c.14-.1.3-.18.46-.25l-1.14-1.44Z"/>
    <path class="cls-2" d="m1.06,8.79l1.81-.72c-.11-.15-.19-.32-.28-.48l-1.53,1.21Z"/>
    <path class="cls-2" d="m2.16,5.59l-1.89.27,1.9.28c-.01-.12-.04-.24-.04-.36,0-.06.02-.12.02-.19Z"/>
    <path class="cls-2" d="m5.85,9.74l.29,1.98.29-1.98c-.1,0-.19.03-.29.03s-.19-.02-.29-.03Z"/>
  </g>
  <g>
    <path class="cls-1" d="m3.15.33L0,7.61s.72-.51,2.35-.52c-.13-.39-.21-.8-.21-1.23,0-2.21,1.79-4,4-4s3.83,1.65,3.97,3.73c.8-1.1,1.66-2.1,2.73-2.16C10.02,2.6,3.15.33,3.15.33Z"/>
    <path class="cls-1" d="m13.74,3.61c-.32-.14-.62-.18-.91-.17,1.04.31,1.53.43.91.17Z"/>
    <path class="cls-3" d="m6.14,1.87c-2.21,0-4,1.79-4,4,0,.43.09.84.21,1.23.41,0,.86.02,1.39.09,2.64.38,3.36,2.04,4.85.43.5-.55.99-1.29,1.51-2.01-.14-2.08-1.85-3.73-3.97-3.73Z"/>
  </g>
</svg>